<svg id="Capa_1" enable-background="new 0 0 512 512" height="512" viewBox="0 0 512 512" width="512" xmlns="http://www.w3.org/2000/svg"><g><g><path d="m298.802 508.267 136.711-74.558c1.822-1.961 3.621-3.944 5.379-5.965l39.119-61.412c13.484-30.362 20.989-63.969 20.989-99.332 0-135.31-109.69-245-245-245s-245 109.69-245 245c0 16.103 1.571 31.837 4.536 47.073l14.996 18.736-5.448 16.207c3.866 10.884 8.478 21.412 13.778 31.526l36.607 24.926 11.914 39.268c43.923 41.685 103.281 67.264 168.617 67.264 14.602 0 28.903-1.284 42.802-3.733z" fill="#0a4499"/></g><g><circle cx="256" cy="242" fill="#0956c6" r="200"/></g><g><g><path d="m405.235 29.781c-2.45-11.706-9.997-22.688-20.992-27.393-9.812-4.199-18.189-2.491-25.246 2.252-8.588 5.772-19.797 5.772-28.385 0-7.058-4.743-15.434-6.451-25.246-2.252-10.995 4.705-18.542 15.687-20.992 27.393-2.45 11.705-.3 24 4.022 35.15 4.322 11.151 10.733 21.351 17.104 31.472 12.858 20.427 26.446 40.853 39.305 61.28 12.859-20.427 26.446-40.853 39.305-61.28 6.371-10.121 12.782-20.321 17.104-31.472 4.322-11.15 6.471-23.445 4.021-35.15z" fill="#ffaee0"/></g><g><path d="m284.374 29.781c-2.45 11.705-.3 24 4.022 35.15 4.322 11.151 10.733 21.351 17.104 31.472 12.858 20.427 26.446 40.853 39.305 61.28 12.858-20.427 26.446-40.853 39.305-61.28 6.371-10.121 12.782-20.321 17.104-31.472s6.472-23.445 4.022-35.15c0 0-10.115 49.061-60.431 49.061s-60.431-49.061-60.431-49.061z" fill="#ff94d2"/></g><g><path d="m245.659 57.909c-11.89-1.287-24.667 2.497-32.539 11.5-7.026 8.034-7.99 16.529-5.66 24.707 2.836 9.952-.628 20.612-8.771 26.996-6.692 5.247-10.905 12.685-9.943 23.315 1.077 11.91 9.19 22.482 19.565 28.43 10.375 5.947 22.732 7.702 34.673 7.037s23.622-3.61 35.217-6.542c23.4-5.917 47.026-12.527 70.427-18.444-15.453-18.541-30.682-37.776-46.135-56.318-7.657-9.187-15.376-18.436-24.646-25.992-9.27-7.558-20.298-13.402-32.188-14.689z" fill="#ffaee0"/></g><g><path d="m208.311 172.855c10.375 5.947 22.732 7.702 34.673 7.037s23.622-3.61 35.217-6.542c23.4-5.917 47.026-12.527 70.427-18.444-15.453-18.541-30.682-37.776-46.135-56.318-7.657-9.187-15.376-18.436-24.646-25.992-9.269-7.557-20.298-13.4-32.187-14.687 0 0 43.534 24.78 27.985 72.634-15.549 47.853-65.334 42.312-65.334 42.312z" fill="#ff94d2"/></g><g><path d="m223.098 218.367c-4.899 10.91-5.248 24.232.882 34.5 5.47 9.164 13.251 12.706 21.748 13.017 10.341.378 19.409 6.967 22.964 16.684 2.922 7.986 8.695 14.291 19.101 16.661 11.66 2.656 24.222-1.792 33.084-9.823 8.862-8.03 14.35-19.24 17.407-30.801 3.058-11.562 3.866-23.582 4.661-35.515 1.604-24.084 2.618-48.596 4.222-72.679-22.409 8.968-45.408 17.507-67.818 26.474-11.103 4.443-22.285 8.927-32.336 15.408s-19.016 15.164-23.915 26.074z" fill="#ffaee0"/></g><g><path d="m320.878 289.408c8.862-8.03 14.35-19.24 17.407-30.801 3.058-11.562 3.866-23.582 4.661-35.515 1.604-24.084 2.618-48.596 4.222-72.679-22.409 8.968-45.408 17.507-67.818 26.474-11.103 4.443-22.285 8.927-32.336 15.408-10.051 6.48-19.016 15.163-23.915 26.073 0 0 37.02-33.745 77.727-4.171s20.052 75.211 20.052 75.211z" fill="#ff94d2"/></g><g><path d="m368.731 289.408c8.862 8.03 21.424 12.479 33.084 9.823 10.406-2.37 16.179-8.676 19.101-16.661 3.555-9.718 12.623-16.306 22.964-16.684 8.498-.311 16.278-3.853 21.748-13.017 6.129-10.269 5.78-23.59.882-34.5s-13.864-19.593-23.915-26.073c-10.051-6.481-21.233-10.964-32.336-15.408-22.409-8.968-45.408-17.507-67.818-26.474 1.604 24.084 2.618 48.596 4.221 72.679.795 11.933 1.603 23.953 4.661 35.515 3.059 11.56 8.546 22.77 17.408 30.8z" fill="#ffaee0"/></g><g><path d="m466.511 218.367c-4.898-10.91-13.864-19.593-23.915-26.073-10.051-6.481-21.233-10.964-32.336-15.408-22.409-8.968-45.408-17.507-67.818-26.474 1.604 24.084 2.618 48.596 4.221 72.679.795 11.933 1.603 23.953 4.661 35.515 3.057 11.562 8.545 22.771 17.407 30.801 0 0-20.654-45.636 20.052-75.211s77.728 4.171 77.728 4.171z" fill="#ff94d2"/></g><g><path d="m481.298 172.855c10.376-5.947 18.489-16.519 19.565-28.43.961-10.629-3.251-18.068-9.944-23.315-8.143-6.384-11.607-17.044-8.771-26.996 2.33-8.178 1.366-16.672-5.66-24.707-7.872-9.003-20.649-12.787-32.539-11.5-11.889 1.287-22.918 7.131-32.187 14.687-9.27 7.557-16.989 16.806-24.646 25.993-15.454 18.541-30.682 37.776-46.135 56.317 23.4 5.917 47.026 12.527 70.427 18.444 11.595 2.932 23.276 5.877 35.217 6.542 11.941.667 24.298-1.088 34.673-7.035z" fill="#ffaee0"/></g><g><path d="m443.95 57.909c-11.889 1.287-22.918 7.131-32.187 14.687-9.27 7.557-16.989 16.806-24.646 25.993-15.453 18.541-30.682 37.776-46.135 56.317 23.4 5.917 47.026 12.527 70.427 18.444 11.595 2.932 23.276 5.877 35.217 6.542 11.94.665 24.297-1.09 34.673-7.037 0 0-49.785 5.541-65.334-42.313s27.985-72.633 27.985-72.633z" fill="#ff94d2"/></g><g><path d="m359.805 66.994c0-8.523-7.108-15.385-15.719-14.983-7.595.355-13.856 6.573-14.259 14.166-.206 3.876 1.063 7.446 3.294 10.21 2.782 3.447 4.184 7.806 4.184 12.236v65.042h15v-65.478c0-4.384 1.645-8.542 4.341-12 1.978-2.537 3.159-5.725 3.159-9.193z" fill="#ff72c3"/></g><g><path d="m267.012 112.616c-8.105-2.634-16.829 2.006-19.107 10.319-2.01 7.333 1.97 15.209 9.066 17.939 3.622 1.394 7.41 1.29 10.728.022 4.138-1.581 8.717-1.567 12.93-.198l61.859 20.099 4.635-14.266-62.272-20.233c-4.17-1.355-7.616-4.204-10.071-7.837-1.802-2.666-4.47-4.774-7.768-5.845z" fill="#ff72c3"/></g><g><path d="m281.726 214.965c-5.009 6.895-3.293 16.625 3.91 21.361 6.353 4.177 15.073 2.826 19.862-3.079 2.445-3.014 3.516-6.649 3.336-10.196-.225-4.424 1.203-8.775 3.807-12.358l38.231-52.62-12.135-8.817-38.486 52.972c-2.577 3.547-6.352 5.944-10.565 7.156-3.093.889-5.922 2.775-7.96 5.581z" fill="#ff72c3"/></g><g><path d="m383.613 232.598c5.009 6.895 14.793 8.269 21.524 2.882 5.936-4.751 7.346-13.462 3.21-19.842-2.111-3.257-5.237-5.399-8.666-6.323-4.277-1.153-7.973-3.856-10.577-7.44l-38.231-52.62-12.135 8.817 38.486 52.972c2.577 3.547 3.69 7.878 3.541 12.26-.11 3.216.809 6.489 2.848 9.294z" fill="#ff72c3"/></g><g><path d="m431.868 141.147c8.105-2.634 12.436-11.514 9.392-19.58-2.684-7.114-10.533-11.146-17.879-9.184-3.75 1.002-6.753 3.312-8.692 6.288-2.419 3.711-6.131 6.392-10.344 7.76l-61.859 20.099 4.635 14.266 62.272-20.233c4.17-1.355 8.633-1.075 12.754.421 3.026 1.098 6.423 1.235 9.721.163z" fill="#ff72c3"/></g><g><circle cx="344.805" cy="153.664" fill="#ff50b5" r="37.102"/></g><g><path d="m337.703 153.664c0-15.151 9.086-28.172 22.102-33.934-4.588-2.031-9.66-3.168-15-3.168-20.491 0-37.102 16.611-37.102 37.102s16.611 37.102 37.102 37.102c5.34 0 10.412-1.137 15-3.168-13.017-5.762-22.102-18.783-22.102-33.934z" fill="#ff2ea6"/></g></g><g><g><path d="m173.803 242.336c-1.837-8.779-7.498-17.016-15.744-20.545-7.359-3.149-13.641-1.868-18.935 1.689-6.441 4.329-14.848 4.329-21.289 0-5.293-3.557-11.576-4.838-18.935-1.689-8.246 3.529-13.907 11.765-15.744 20.545-1.837 8.779-.225 18 3.017 26.363s8.05 16.013 12.828 23.604c9.644 15.32 19.835 30.64 29.478 45.96 9.644-15.32 19.835-30.64 29.478-45.96 4.778-7.591 9.586-15.241 12.828-23.604 3.243-8.363 4.855-17.584 3.018-26.363z" fill="#ffaee0"/></g><g><path d="m83.157 242.336c-1.837 8.779-.225 18 3.017 26.363s8.05 16.013 12.828 23.604c9.644 15.32 19.835 30.64 29.478 45.96 9.644-15.32 19.835-30.64 29.479-45.96 4.778-7.591 9.586-15.241 12.828-23.604s4.854-17.584 3.016-26.363c0 0-7.586 36.795-45.323 36.795s-45.323-36.795-45.323-36.795z" fill="#ff94d2"/></g><g><path d="m96.746 293.941c-5.743-6.89-11.532-13.827-18.484-19.494s-15.223-10.05-24.14-11.016-18.5 1.873-24.404 8.625c-5.269 6.026-5.992 12.396-4.245 18.53 2.127 7.464-.471 15.459-6.579 20.247-1.244.975-2.372 2.052-3.357 3.24 2.332 11.983 5.537 23.653 9.547 34.943.34.212.679.426 1.026.625 7.782 4.46 17.049 5.776 26.005 5.278 8.956-.499 17.717-2.708 26.413-4.906 17.55-4.438 35.27-9.395 52.82-13.833-11.591-13.907-23.012-28.333-34.602-42.239z" fill="#ffaee0"/></g><g><path d="m96.746 293.941c-5.743-6.89-11.532-13.827-18.484-19.494s-15.223-10.05-24.14-11.015c0 0 32.65 18.585 20.989 54.475s-49 31.735-49 31.735c7.782 4.46 17.049 5.776 26.005 5.278 8.956-.499 17.717-2.708 26.413-4.906 17.55-4.438 35.27-9.395 52.82-13.833-11.592-13.908-23.013-28.334-34.603-42.24z" fill="#ff94d2"/></g><g><path d="m55.136 364.22c-6.516 4.201-12.42 9.64-16.275 16.322 12.585 24.018 29.027 45.694 48.52 64.193 8.261 1.247 16.925-2.037 23.153-7.68 6.647-6.022 10.762-14.43 13.055-23.101 2.293-8.672 2.9-17.686 3.496-26.636 1.203-18.063 1.963-36.447 3.166-54.51-16.807 6.726-34.056 13.13-50.863 19.856-8.327 3.333-16.713 6.696-24.252 11.556z" fill="#ffaee0"/></g><g><path d="m55.136 364.22c-6.516 4.201-12.42 9.64-16.275 16.322.234.446.468.891.705 1.336 7.327-5.441 30.682-19.574 55.929-1.231 30.53 22.181 15.039 56.409 15.039 56.409 6.647-6.022 10.762-14.43 13.055-23.101 2.293-8.672 2.9-17.686 3.496-26.636 1.203-18.063 1.963-36.447 3.166-54.51-16.807 6.726-34.056 13.13-50.863 19.856-8.327 3.332-16.713 6.695-24.252 11.555z" fill="#ff94d2"/></g><g><path d="m146.425 437.056c6.647 6.023 16.068 9.359 24.813 7.367 7.805-1.778 12.134-6.507 14.326-12.496 2.667-7.288 9.467-12.229 17.223-12.513 6.373-.233 12.209-2.89 16.311-9.763 4.597-7.702 4.335-17.693.661-25.875s-10.398-14.695-17.936-19.555c-7.538-4.861-15.925-8.223-24.252-11.556-16.807-6.726-34.056-13.13-50.863-19.856 1.203 18.063 1.963 36.447 3.166 54.51.596 8.95 1.203 17.965 3.496 26.636s6.408 17.078 13.055 23.101z" fill="#ffaee0"/></g><g><path d="m219.76 383.775c-3.674-8.182-10.398-14.695-17.936-19.555-7.538-4.861-15.925-8.223-24.252-11.556-16.807-6.726-34.056-13.13-50.863-19.856 1.203 18.063 1.963 36.447 3.166 54.51.596 8.95 1.203 17.965 3.496 26.636s6.409 17.079 13.055 23.101c0 0-15.49-34.227 15.039-56.408s58.295 3.128 58.295 3.128z" fill="#ff94d2"/></g><g><path d="m230.85 349.641c7.782-4.46 13.866-12.389 14.674-21.322.721-7.972-2.439-13.551-7.458-17.486-6.108-4.788-8.705-12.783-6.579-20.247 1.748-6.134 1.025-12.504-4.245-18.53-5.904-6.752-15.487-9.59-24.404-8.625-8.917.966-17.188 5.348-24.14 11.015s-12.742 12.604-18.484 19.494c-11.59 13.906-23.011 28.332-34.601 42.238 17.55 4.438 35.27 9.396 52.82 13.833 8.696 2.199 17.457 4.408 26.413 4.906 8.955.501 18.223-.815 26.004-5.276z" fill="#ffaee0"/></g><g><path d="m202.839 263.432c-8.917.966-17.188 5.348-24.14 11.015s-12.742 12.604-18.484 19.494c-11.59 13.906-23.011 28.332-34.601 42.238 17.55 4.438 35.27 9.396 52.82 13.833 8.696 2.199 17.457 4.408 26.413 4.906 8.955.499 18.223-.817 26.005-5.278 0 0-37.339 4.156-49-31.734s20.987-54.474 20.987-54.474z" fill="#ff94d2"/></g><g><path d="m139.73 270.245c0-6.392-5.331-11.539-11.789-11.237-5.696.266-10.392 4.93-10.695 10.624-.155 2.907.797 5.584 2.471 7.657 2.087 2.585 3.138 5.855 3.138 9.177v48.782h11.25v-49.108c0-3.288 1.234-6.407 3.256-9 1.484-1.902 2.369-4.294 2.369-6.895z" fill="#ff72c3"/></g><g><path d="m70.135 304.462c-6.079-1.975-12.621 1.504-14.33 7.74-1.507 5.5 1.477 11.406 6.799 13.454 2.717 1.045 5.557.967 8.046.017 3.104-1.186 6.538-1.175 9.698-.149l46.394 15.074 3.476-10.699-46.704-15.175c-3.127-1.016-5.712-3.153-7.553-5.878-1.351-2-3.352-3.581-5.826-4.384z" fill="#ff72c3"/></g><g><path d="m81.171 381.224c-3.757 5.171-2.47 12.468 2.932 16.021 4.765 3.133 11.305 2.12 14.897-2.309 1.834-2.261 2.637-4.986 2.502-7.647-.169-3.318.902-6.581 2.855-9.269l28.673-39.465-9.101-6.613-28.865 39.729c-1.933 2.66-4.764 4.458-7.924 5.367-2.319.667-4.44 2.081-5.969 4.186z" fill="#ff72c3"/></g><g><path d="m157.586 394.449c3.757 5.171 11.095 6.202 16.143 2.162 4.452-3.563 5.509-10.096 2.407-14.881-1.583-2.442-3.927-4.049-6.499-4.743-3.208-.865-5.98-2.892-7.933-5.58l-28.673-39.465-9.101 6.613 28.865 39.729c1.933 2.66 2.767 5.908 2.656 9.195-.083 2.411.606 4.866 2.135 6.97z" fill="#ff72c3"/></g><g><path d="m193.777 325.86c6.079-1.975 9.327-8.636 7.044-14.685-2.013-5.335-7.9-8.36-13.409-6.888-2.812.751-5.065 2.484-6.519 4.716-1.814 2.784-4.598 4.794-7.758 5.82l-46.394 15.074 3.476 10.699 46.704-15.175c3.127-1.016 6.474-.806 9.565.316 2.27.824 4.818.927 7.291.123z" fill="#ff72c3"/></g><g><circle cx="128.48" cy="335.248" fill="#ff50b5" r="27.826"/></g><g><path d="m123.153 335.248c0-11.363 6.814-21.129 16.576-25.45-3.441-1.523-7.245-2.376-11.25-2.376-15.368 0-27.826 12.458-27.826 27.826s12.458 27.827 27.826 27.827c4.005 0 7.809-.853 11.25-2.376-9.761-4.322-16.576-14.088-16.576-25.451z" fill="#ff2ea6"/></g></g><g><g><path d="m368.772 318.779c-6.136-8.44-16.071-14.481-26.504-14.293-9.311.168-15.366 4.523-19.287 10.822-4.771 7.665-13.691 11.674-22.59 10.152-7.313-1.251-14.591.386-20.898 7.237-7.067 7.677-9.146 19.116-6.909 29.309 2.237 10.192 8.345 19.208 15.773 26.536 7.428 7.329 16.178 13.153 24.868 18.929 17.539 11.658 35.659 23.055 53.198 34.713 2.928-20.856 6.436-41.972 9.364-62.827 1.45-10.334 2.905-20.744 2.356-31.164-.549-10.422-3.235-20.975-9.371-29.414z" fill="#ffaee0"/></g><g><path d="m272.583 362.005c2.237 10.192 8.345 19.208 15.773 26.536 7.428 7.329 16.178 13.153 24.869 18.929 17.539 11.658 35.659 23.055 53.198 34.713 2.928-20.856 6.436-41.972 9.364-62.827 1.45-10.334 2.905-20.744 2.356-31.164-.548-10.42-3.235-20.973-9.371-29.413 0 0 9.497 42.663-30.547 60.658s-65.642-17.432-65.642-17.432z" fill="#ff94d2"/></g><g><path d="m251.832 398.237c-9.923 3.228-18.738 10.81-21.784 20.79-2.718 8.907-.447 16.012 4.332 21.687 5.816 6.906 6.872 16.628 2.674 24.622-3.449 6.569-4.142 13.996.425 22.111 5.117 9.094 15.354 14.606 25.739 15.628 10.384 1.022 20.846-2.001 30.111-6.801s17.509-11.322 25.688-17.802c16.507-13.078 32.945-26.789 49.453-39.867-18.93-9.229-37.929-19.091-56.859-28.32-9.38-4.573-18.831-9.173-28.911-11.871-10.078-2.699-20.945-3.405-30.868-.177z" fill="#ffaee0"/></g><g><path d="m263.22 503.075c10.384 1.022 20.846-2.001 30.111-6.801s17.509-11.322 25.688-17.802c16.507-13.078 32.945-26.789 49.453-39.867-18.93-9.229-37.929-19.091-56.859-28.32-9.38-4.573-18.831-9.173-28.911-11.871-10.079-2.699-20.946-3.405-30.869-.177 0 0 43.509 4.152 48.25 47.797 4.74 43.645-36.863 57.041-36.863 57.041z" fill="#ff94d2"/></g><g><path d="m435.513 433.709c-3.379.073-6.759.206-10.13.346-19.606.818-39.478 2.099-59.122 2.983l-3.574 1.618c-13.701 14.1-27.862 28.104-41.489 42.22-7.247 7.508-14.543 15.075-20.224 23.827-.756 1.164-1.479 2.354-2.171 3.564 53.601-9.444 101.184-36.321 136.71-74.558z" fill="#ff94d2"/></g><g><path d="m480.011 366.333c-2.922-2.797-6.475-4.548-10.382-5.515-8.764-2.168-15.333-9.413-16.636-18.348-1.07-7.342-4.876-13.757-13.341-17.639-9.485-4.349-21.007-2.791-30.009 2.486s-15.689 13.872-20.363 23.201c-4.675 9.329-7.51 19.451-10.318 29.501-5.667 20.283-10.907 41.038-16.575 61.321 20.74-3.66 41.906-6.849 62.646-10.509 5.299-.935 10.615-1.881 15.859-3.086 15.913-18.289 29.15-38.963 39.119-61.412z" fill="#ffaee0"/></g><g><path d="m452.878 412.832c-12.183.277-26.636-3.478-39.53-17.699-29.489-32.523-3.706-67.815-3.706-67.815-9.002 5.277-15.689 13.872-20.363 23.201-4.675 9.329-7.51 19.451-10.318 29.501-5.667 20.283-10.907 41.038-16.575 61.321 20.74-3.66 41.906-6.849 62.646-10.509 5.298-.935 10.615-1.881 15.859-3.086 4.186-4.811 8.183-9.786 11.987-14.914z" fill="#ff94d2"/></g><g><path d="m345.925 364.643c-3.048-6.783-11.159-9.702-17.869-6.302-5.918 2.998-8.676 10.187-6.282 16.374 1.222 3.158 3.509 5.545 6.273 6.947 3.447 1.748 6.122 4.716 7.706 8.242l23.263 51.764 11.938-5.365-23.418-52.11c-1.568-3.489-1.746-7.387-.837-11.103.667-2.727.466-5.687-.774-8.447z" fill="#ff72c3"/></g><g><path d="m288.392 434.139c-7.393.803-12.676 7.615-11.516 15.047 1.023 6.555 7.007 11.399 13.631 11.034 3.381-.186 6.358-1.624 8.546-3.819 2.728-2.738 6.377-4.365 10.22-4.782l56.419-6.128-1.413-13.011-56.796 6.169c-3.803.413-7.565-.622-10.818-2.635-2.388-1.479-5.265-2.202-8.273-1.875z" fill="#ff72c3"/></g><g><path d="m346.895 493.569c-.08.381-.182.753-.29 1.123 5.009-1.995 9.935-4.151 14.775-6.46l10.009-47.908-12.811-2.677z" fill="#ff72c3"/></g><g><path d="m368.237 433.306-6.505 11.357 37.219 21.316c3.844-2.767 7.603-5.645 11.276-8.624z" fill="#ff72c3"/></g><g><path d="m429.798 397.884c5.509-4.995 5.779-13.611.472-18.942-4.68-4.701-12.369-5.103-17.513-.915-2.626 2.138-4.19 5.051-4.669 8.113-.597 3.819-2.593 7.28-5.457 9.876l-42.042 38.12 8.791 9.696 42.323-38.375c2.834-2.57 6.486-3.943 10.301-4.227 2.799-.207 5.552-1.313 7.794-3.346z" fill="#ff72c3"/></g><g><circle cx="364.985" cy="438.984" fill="#ff50b5" r="32.372"/></g><g><path d="m359.333 441.524c-5.419-12.058-2.845-25.67 5.453-34.911-4.378.024-8.821.934-13.071 2.844-16.308 7.329-23.587 26.49-16.258 42.797 7.329 16.308 26.49 23.587 42.797 16.258 4.25-1.91 7.88-4.629 10.805-7.886-12.42.069-24.308-7.044-29.726-19.102z" fill="#ff2ea6"/></g></g></g></svg>