<?xml version="1.0" encoding="iso-8859-1"?>
<!-- Generator: Adobe Illustrator 19.0.0, SVG Export Plug-In . SVG Version: 6.00 Build 0)  -->
<svg version="1.1" id="Capa_1" xmlns="http://www.w3.org/2000/svg" xmlns:xlink="http://www.w3.org/1999/xlink" x="0px" y="0px"
	 viewBox="0 0 480 480" style="enable-background:new 0 0 480 480;" xml:space="preserve">
<path style="fill:#B5DEF3;" d="M267.432,191.96h-54.864l-27.424,48l27.424,48h54.864l27.424-48L267.432,191.96z"/>
<path style="fill:#88D0EF;" d="M480,231.96h-20.688l10.344-10.344l-11.312-11.312l-21.656,21.656h-25.376l34.344-34.344
	l-11.312-11.312l-45.656,45.656h-25.376l58.344-58.344l-11.312-11.312l-68.264,68.264c-5.14-12.17-19.172-17.869-31.342-12.729
	c-6.216,2.625-11.034,7.753-13.266,14.121h-43.688l21.6-37.872c1.488,0.336,3.004,0.532,4.528,0.584c13.255,0,24-10.745,24-24
	c0-5.193-1.684-10.246-4.8-14.4l93.256-24.984l-4.144-15.456l-79.696,21.36l12.688-21.968l62.4-16.72l-4.144-15.448L332.56,95.624
	l12.688-21.976l29.6-7.928l-4.136-15.456l-14.128,3.792l10.344-17.936l-13.856-8l-10.344,17.904l-3.784-14.128l-15.448,4.144
	l7.92,29.6l-12.688,21.976L306.16,40.688l-15.456,4.136l16.712,62.4l-12.688,21.936l-21.352-79.696l-15.456,4.144l24.992,93.256
	c-13.112-1.65-25.078,7.641-26.728,20.753c-0.832,6.612,1.131,13.271,5.416,18.375L240,223.84l-21.6-37.848
	c8.495-10.129,7.17-25.226-2.959-33.721c-5.091-4.27-11.727-6.231-18.321-5.415l24.96-93.248l-15.456-4.144l-21.352,79.696
	l-12.688-22l16.712-62.4l-15.456-4.072L161.272,87.6l-12.688-21.976l7.92-29.6l-15.448-4.144l-3.784,14.128L126.928,28.12l-13.856,8
	l10.344,17.912l-14.128-3.792l-4.136,15.456l29.6,7.928L147.44,95.6l-46.92-12.568L96.384,98.48l62.4,16.72l12.688,21.968
	l-79.696-21.36l-4.144,15.456l93.168,24.984c-8.162,10.201-6.509,25.088,3.692,33.25c5.634,4.508,13.018,6.198,20.052,4.59
	l21.672,37.872h-43.688c-4.371-12.467-18.021-19.029-30.487-14.658c-6.367,2.233-11.496,7.05-14.121,13.266l-68.264-68.264
	l-11.312,11.312l58.344,58.344H91.312l-45.656-45.656l-11.312,11.312l34.344,34.344H43.312l-21.656-21.656l-11.312,11.312
	l10.344,10.344H0v16h20.688l-10.344,10.344l11.312,11.312l21.656-21.656h25.376l-34.344,34.344l11.312,11.312l45.656-45.656h25.376
	l-58.344,58.344l11.312,11.312l68.264-68.264c5.14,12.17,19.172,17.869,31.342,12.729c6.216-2.625,11.034-7.753,13.266-14.121
	h43.688l-21.6,37.84c-12.943-2.6-25.543,5.785-28.143,18.728c-1.349,6.714,0.247,13.685,4.383,19.144l-93.28,24.984l4.144,15.456
	l79.696-21.36l-12.688,22.008l-62.4,16.712l4.136,15.448l46.92-12.568l-12.688,21.976l-29.6,7.928l4.136,15.456l14.128-3.792
	l-10.288,17.88l13.856,8l10.344-17.904l3.784,14.128l15.448-4.144l-7.92-29.6l12.688-21.976l12.568,46.912l15.456-4.136
	l-16.712-62.4l12.688-21.976l21.352,79.704l15.456-4.144l-25.04-93.408c13.01,1.779,24.999-7.326,26.778-20.336
	c0.914-6.685-1.055-13.444-5.418-18.592L240,256.08l21.6,37.848c-8.496,10.116-7.184,25.204,2.932,33.701
	c4.331,3.638,9.811,5.623,15.468,5.603c0.977-0.067,1.95-0.192,2.912-0.376l-24.992,93.456l15.456,4.144l21.352-79.704
	l12.688,22.008l-16.712,62.4l15.456,4.136l12.568-46.912l12.688,21.976l-7.92,29.6l15.448,4.144l3.784-14.128l10.344,17.904
	l13.856-8l-10.344-17.912l14.128,3.792l4.136-15.456l-29.6-7.928L332.56,384.4l46.912,12.568l4.144-15.448l-62.4-16.712
	l-12.688-21.976l79.696,21.36l4.144-15.456L299.2,323.672c7.972-10.528,5.901-25.526-4.628-33.499
	c-5.459-4.133-12.427-5.729-19.14-4.381l-21.648-37.832h43.688c4.371,12.467,18.021,19.029,30.487,14.658
	c6.367-2.233,11.496-7.05,14.121-13.266l68.264,68.264l11.312-11.312l-58.344-58.344h25.376l45.656,45.656l11.312-11.312
	l-34.344-34.344h25.376l21.656,21.656l11.312-11.312l-10.344-10.344H480L480,231.96z M273.072,166.68
	c2.209-3.826,7.102-5.137,10.928-2.928c3.826,2.209,5.137,7.102,2.928,10.928c-2.209,3.826-7.102,5.137-10.928,2.928c0,0,0,0,0,0
	C272.174,175.399,270.863,170.506,273.072,166.68z M193.072,174.68c-2.211-3.825-0.902-8.719,2.924-10.929
	c3.825-2.211,8.719-0.902,10.929,2.924c2.209,3.823,0.904,8.713-2.917,10.926c-3.822,2.216-8.717,0.914-10.934-2.908
	c-0.001-0.001-0.002-0.003-0.002-0.004V174.68z M160,247.96c-4.418,0-8-3.582-8-8s3.582-8,8-8s8,3.582,8,8
	S164.418,247.96,160,247.96z M206.928,313.24c-2.209,3.826-7.102,5.137-10.928,2.928s-5.137-7.102-2.928-10.928
	c1.429-2.475,4.07-4,6.928-4c1.405-0.005,2.786,0.366,4,1.072C207.826,304.521,209.137,309.414,206.928,313.24z M286.928,305.24
	c2.213,3.824,0.906,8.718-2.918,10.931c-3.824,2.213-8.718,0.906-10.931-2.918c-2.213-3.824-0.906-8.718,2.918-10.931
	c0.001-0.001,0.002-0.001,0.003-0.002c3.822-2.212,8.713-0.908,10.928,2.912V305.24z M320,247.96c-4.418,0-8-3.582-8-8s3.582-8,8-8
	s8,3.582,8,8S324.418,247.96,320,247.96z"/>
<path d="M469.656,221.616l-11.312-11.312l-21.656,21.656h-25.376l34.344-34.344l-11.312-11.312l-45.656,45.656h-25.376
	l58.344-58.344l-11.312-11.312l-68.264,68.264c-5.152-12.174-19.197-17.867-31.372-12.716c-5.485,2.321-9.908,6.604-12.404,12.012
	l-20.256-35.44c0.64,0.048,1.272,0.248,1.904,0.248c13.255,0,24-10.745,24-24c0-5.193-1.684-10.246-4.8-14.4l93.256-24.984
	l-4.144-15.456l-79.696,21.36l12.688-21.968l62.4-16.72l-4.144-15.448L332.6,95.624l12.688-21.976l29.6-7.928l-4.136-15.456
	l-14.128,3.792l10.304-17.936l-13.856-8l-10.344,17.904l-3.784-14.128l-15.448,4.144l7.92,29.6l-12.688,21.976L306.16,40.688
	l-15.456,4.136l16.712,62.4l-12.688,21.936l-21.352-79.696l-15.456,4.144l24.992,93.256c-13.099-1.642-25.05,7.645-26.692,20.744
	c-0.72,5.744,0.668,11.554,3.908,16.352h-40.256c7.387-10.947,4.501-25.81-6.446-33.197c-4.792-3.234-10.593-4.622-16.33-3.907
	l24.984-93.248l-15.456-4.144l-21.352,79.696l-12.688-22l16.712-62.4l-15.456-4.072L161.272,87.6l-12.688-21.976l7.92-29.6
	l-15.448-4.144l-3.784,14.128L126.928,28.12l-13.856,8l10.344,17.912l-14.128-3.792l-4.136,15.456l29.6,7.928L147.44,95.6
	l-46.92-12.568L96.384,98.48l62.4,16.72l12.688,21.968l-79.696-21.36l-4.144,15.456l93.168,24.984
	c-7.953,10.604-5.804,25.647,4.8,33.6c4.154,3.116,9.207,4.8,14.4,4.8c0.632,0,1.264-0.192,1.904-0.248l-20.256,35.44
	c-5.54-12.002-19.762-17.241-31.764-11.7c-5.408,2.496-9.691,6.919-12.012,12.404L69.608,162.28l-11.264,11.336l58.344,58.344
	H91.312l-45.656-45.656l-11.312,11.312l34.344,34.344H43.312l-21.656-21.656l-11.312,11.312l10.344,10.344H0v16h20.688
	l-10.344,10.344l11.312,11.312l21.656-21.656h25.376l-34.344,34.344l11.312,11.312l45.656-45.656h25.376l-58.344,58.344
	l11.312,11.312l68.264-68.264c5.152,12.174,19.197,17.867,31.372,12.716c5.485-2.321,9.908-6.604,12.404-12.012l20.2,35.352
	c-13.158-1.124-24.737,8.631-25.861,21.79c-0.503,5.892,1.194,11.761,4.765,16.474l-93.224,24.984l4.144,15.456l79.696-21.36
	l-12.688,22.008l-62.4,16.712l4.136,15.448l46.92-12.568l-12.688,21.976l-29.6,7.928l4.136,15.456l14.128-3.792l-10.288,17.88
	l13.856,8l10.344-17.904l3.784,14.128l15.448-4.144l-7.92-29.6l12.688-21.976l12.568,46.912l15.456-4.136l-16.712-62.4
	l12.688-21.976l21.352,79.704l15.456-4.144l-25.04-93.408c12.993,1.773,24.963-7.323,26.736-20.316
	c0.794-5.819-0.597-11.726-3.904-16.58h40.256c-7.387,10.936-4.511,25.79,6.425,33.178c3.984,2.691,8.687,4.118,13.495,4.094
	c0.977-0.067,1.95-0.192,2.912-0.376l-25.04,93.456l15.456,4.144l21.352-79.704l12.688,22.008l-16.712,62.4l15.456,4.136
	l12.568-46.912l12.688,21.976l-7.92,29.6l15.448,4.144l3.784-14.128l10.344,17.904l13.856-8l-10.344-17.912l14.128,3.792
	l4.136-15.456l-29.6-7.928L332.56,384.4l46.912,12.568l4.144-15.448l-62.4-16.712l-12.688-21.976l79.696,21.36l4.144-15.456
	L299.2,323.672c7.977-10.525,5.913-25.523-4.612-33.501c-4.707-3.568-10.567-5.267-16.452-4.771l20.2-35.344
	c5.54,12.002,19.762,17.241,31.764,11.7c5.408-2.496,9.691-6.919,12.012-12.404l68.264,68.264l11.312-11.312l-58.376-58.344h25.376
	l45.656,45.656l11.312-11.312l-34.344-34.344h25.376l21.656,21.656l11.312-11.312l-10.344-10.344H480v-16h-20.688L469.656,221.616z
	 M160,247.96c-4.418,0-8-3.582-8-8s3.582-8,8-8s8,3.582,8,8S164.418,247.96,160,247.96z M198.92,247.96h27.2l-13.68,23.696
	L198.92,247.96z M212.464,208.264l13.68,23.696h-27.2L212.464,208.264z M226.144,199.96h27.712l-13.856,24L226.144,199.96z
	 M240,255.96l13.856,24h-27.712L240,255.96z M267.536,271.656l-13.68-23.696h27.2L267.536,271.656z M253.856,231.96l13.68-23.696
	l13.544,23.696H253.856z M273.056,166.68c2.209-3.826,7.102-5.137,10.928-2.928c3.826,2.209,5.137,7.102,2.928,10.928
	c-2.209,3.826-7.102,5.137-10.928,2.928c0,0,0,0,0,0c-3.82-2.215-5.124-7.106-2.912-10.928H273.056z M193.056,174.68
	c-2.211-3.825-0.902-8.719,2.924-10.929c3.825-2.211,8.719-0.902,10.929,2.924c2.209,3.823,0.904,8.713-2.917,10.926
	c-3.82,2.206-8.706,0.904-10.92-2.912L193.056,174.68z M206.928,313.24c-2.209,3.826-7.102,5.137-10.928,2.928
	s-5.137-7.102-2.928-10.928c1.429-2.475,4.07-4,6.928-4c1.405-0.005,2.786,0.366,4,1.072
	C207.826,304.521,209.137,309.414,206.928,313.24z M286.928,305.24c2.213,3.824,0.906,8.718-2.918,10.931
	c-3.824,2.213-8.718,0.906-10.931-2.918c-2.213-3.824-0.906-8.718,2.918-10.931c0.001-0.001,0.002-0.001,0.003-0.002
	c3.822-2.212,8.713-0.908,10.928,2.912V305.24z M320,247.96c-4.418,0-8-3.582-8-8s3.582-8,8-8s8,3.582,8,8
	S324.418,247.96,320,247.96z"/>
<g>
</g>
<g>
</g>
<g>
</g>
<g>
</g>
<g>
</g>
<g>
</g>
<g>
</g>
<g>
</g>
<g>
</g>
<g>
</g>
<g>
</g>
<g>
</g>
<g>
</g>
<g>
</g>
<g>
</g>
</svg>
