<?xml version="1.0" encoding="iso-8859-1"?>
<!-- Generator: Adobe Illustrator 19.0.0, SVG Export Plug-In . SVG Version: 6.00 Build 0)  -->
<svg version="1.1" id="Capa_1" xmlns="http://www.w3.org/2000/svg" xmlns:xlink="http://www.w3.org/1999/xlink" x="0px" y="0px"
	 viewBox="0 0 462.45 462.45" style="enable-background:new 0 0 462.45 462.45;" xml:space="preserve">
<path style="fill:#FFF89B;" d="M264,323.304c-75.111-0.01-135.992-60.907-135.982-136.018c0.005-40.726,18.262-79.306,49.75-105.134
	C93.162,107.654,45.249,196.913,70.75,281.519s114.761,132.519,199.367,107.018c61.301-18.477,105.685-71.719,112.827-135.345
	C359.002,296.46,313.45,323.311,264,323.304z"/>
<g>
	<path style="fill:#7FCCCB;" d="M72,394.152H56v-16H40v16H24v16h16v16h16v-16h16V394.152z"/>
	<path style="fill:#7FCCCB;" d="M400,178.152v-16h-16v-16h-16v16h-16v16h16v16h16v-16H400z"/>
	<path style="fill:#7FCCCB;" d="M448,210.152h-16v-16h-16v16h-16v16h16v16h16v-16h16V210.152z"/>
	<path style="fill:#7FCCCB;" d="M32,82.152H16v16H0v16h16v16h16v-16h16v-16H32V82.152z"/>
</g>
<g>
	<path style="fill:#FFD884;" d="M296.72,21.488l15.056,30.504l33.656,4.888L321.08,80.624l5.744,33.528L296.72,98.32l-30.112,15.832
		l5.752-33.528L248,56.88l33.664-4.888L296.72,21.488z"/>
	<path style="fill:#FFD884;" d="M248.72,157.488l15.056,30.504l33.656,4.888l-24.352,23.744l5.744,33.528L248.72,234.32
		l-30.112,15.832l5.752-33.528L200,192.88l33.664-4.888L248.72,157.488z"/>
</g>
<path style="fill:#FFBF41;" d="M403.224,338.152l11.312,39.912l39.912,11.312l-39.912,11.312L403.224,440.6l-11.312-39.912
	L352,389.376l39.912-11.312L403.224,338.152z"/>
<path d="M390.888,254.08c0.509-4.389-2.636-8.36-7.024-8.869c-3.22-0.374-6.348,1.233-7.92,4.069
	c-34.167,61.887-112.035,84.359-173.922,50.192S117.663,187.437,151.83,125.55c7.876-14.266,18.404-26.897,31.018-37.214
	c3.419-2.798,3.922-7.839,1.124-11.258c-2.051-2.506-5.409-3.528-8.508-2.59C86.626,101.259,36.31,194.978,63.081,283.816
	s120.49,139.154,209.327,112.383C336.781,376.801,383.39,320.893,390.888,254.08z M224,387.304
	c-83.908,0.037-151.958-67.953-151.996-151.86c-0.024-53.382,27.97-102.859,73.74-130.332
	c-45.256,65.397-28.929,155.099,36.467,200.355c57.403,39.725,135.032,32.555,184.189-17.011
	C344.272,347.94,287.466,387.372,224,387.304L224,387.304z"/>
<path d="M384,194.152v-16h16v-16h-16v-16h-16v16h-16v16h16v16H384z"/>
<path d="M432,194.152h-16v16h-16v16h16v16h16v-16h16v-16h-16V194.152z"/>
<path d="M56,426.152v-16h16v-16H56v-16H40v16H24v16h16v16H56z"/>
<path d="M32,130.152v-16h16v-16H32v-16H16v16H0v16h16v16H32z"/>
<path d="M240.392,54.408c-0.948,2.895-0.17,6.077,2.008,8.208l21.352,20.8l-5.04,29.384c-0.744,4.355,2.184,8.489,6.539,9.232
	c1.729,0.295,3.507,0.014,5.061-0.8l26.4-13.872l26.4,13.872c2.693,1.414,5.954,1.178,8.416-0.608c2.47-1.786,3.711-4.819,3.2-7.824
	l-5.04-29.384l21.352-20.8c3.165-3.083,3.231-8.148,0.147-11.313c-1.23-1.263-2.843-2.083-4.587-2.335l-29.496-4.296l-13.2-26.728
	c-2.338-3.961-7.444-5.277-11.405-2.939c-1.212,0.716-2.224,1.727-2.939,2.939l-13.208,26.728l-29.504,4.296
	C243.836,49.406,241.334,51.515,240.392,54.408L240.392,54.408z M282.792,59.904c2.603-0.381,4.852-2.017,6.016-4.376l7.888-16
	l7.88,16c1.165,2.361,3.418,3.998,6.024,4.376l17.6,2.568l-12.744,12.424c-1.886,1.837-2.748,4.485-2.304,7.08l3.008,17.552
	L300.4,91.24c-2.329-1.223-5.111-1.223-7.44,0l-15.768,8.288l3.008-17.552c0.446-2.594-0.413-5.241-2.296-7.08l-12.712-12.424
	L282.792,59.904z"/>
<path d="M192.392,190.408c-0.944,2.898-0.159,6.081,2.024,8.208l21.352,20.8l-5.04,29.384c-0.744,4.355,2.184,8.489,6.539,9.232
	c1.729,0.295,3.507,0.014,5.061-0.8l26.4-13.872l26.4,13.872c2.693,1.414,5.954,1.178,8.416-0.608c2.47-1.786,3.711-4.819,3.2-7.824
	l-5.04-29.384l21.352-20.8c3.165-3.083,3.231-8.148,0.147-11.313c-1.23-1.263-2.843-2.083-4.587-2.335l-29.496-4.296l-13.2-26.728
	c-2.338-3.961-7.444-5.277-11.405-2.939c-1.212,0.716-2.224,1.727-2.939,2.939l-13.192,26.728l-29.504,4.296
	C195.856,185.395,193.339,187.505,192.392,190.408L192.392,190.408z M234.792,195.904c2.603-0.381,4.852-2.017,6.016-4.376l7.888-16
	l7.88,16c1.165,2.361,3.418,3.998,6.024,4.376l17.6,2.568l-12.744,12.424c-1.886,1.837-2.748,4.485-2.304,7.08l3.008,17.552
	l-15.76-8.288c-2.329-1.223-5.111-1.223-7.44,0l-15.768,8.288l3.008-17.552c0.446-2.594-0.413-5.241-2.296-7.08l-12.712-12.424
	L234.792,195.904z"/>
<path d="M410.92,442.784l10.096-35.616l35.616-10.096c4.25-1.206,6.718-5.63,5.512-9.88c-0.757-2.668-2.843-4.754-5.512-5.512
	l-35.616-10.096l-10.096-35.616c-1.206-4.25-5.63-6.718-9.88-5.512c-2.668,0.757-4.754,2.843-5.512,5.512l-10.088,35.616
	l-35.616,10.096c-4.25,1.206-6.718,5.63-5.512,9.88c0.757,2.668,2.843,4.754,5.512,5.512l35.616,10.096l10.088,35.616
	c1.206,4.25,5.63,6.718,9.88,5.512C408.077,447.538,410.163,445.453,410.92,442.784z M403.224,411.264l-3.616-12.752
	c-0.755-2.672-2.841-4.761-5.512-5.52l-12.76-3.64l12.76-3.616c2.671-0.759,4.757-2.848,5.512-5.52l3.616-12.752l3.616,12.752
	c0.756,2.674,2.846,4.764,5.52,5.52l12.76,3.616l-12.76,3.616c-2.674,0.756-4.764,2.846-5.52,5.52L403.224,411.264z"/>
<g>
</g>
<g>
</g>
<g>
</g>
<g>
</g>
<g>
</g>
<g>
</g>
<g>
</g>
<g>
</g>
<g>
</g>
<g>
</g>
<g>
</g>
<g>
</g>
<g>
</g>
<g>
</g>
<g>
</g>
</svg>
